<?xml version="1.0" encoding="utf-8"?>

<!-- Uploaded to: SVG Repo, www.svgrepo.com, Generator: SVG Repo Mixer Tools -->
<svg fill="#000000" height="800px" width="800px" version="1.1" id="Icons" xmlns="http://www.w3.org/2000/svg" xmlns:xlink="http://www.w3.org/1999/xlink" 
	 viewBox="0 0 32 32" xml:space="preserve">
<g>
	<path d="M16,6.1V5c0-1.7-1.3-3-3-3H3C2.4,2,2,2.4,2,3s0.4,1,1,1c0.6,0,1,0.4,1,1v1.1c-1.7,0.4-3,2-3,3.9v16c0,2.2,1.8,4,4,4h10
		c2.2,0,4-1.8,4-4V10C19,8.1,17.7,6.6,16,6.1z M13,26H7c-0.6,0-1-0.4-1-1s0.4-1,1-1h6c0.6,0,1,0.4,1,1S13.6,26,13,26z M14,16H6V5
		c0-0.4-0.1-0.7-0.2-1H13c0.6,0,1,0.4,1,1V16z"/>
	<path d="M9.5,11h1c0.3,0,0.5,0.2,0.5,0.5S10.8,12,10.5,12H9c-0.6,0-1,0.4-1,1s0.4,1,1,1c0,0.6,0.4,1,1,1s1-0.4,1-1v-0.1
		c1.1-0.2,2-1.2,2-2.4c0-1.4-1.1-2.5-2.5-2.5h-1C9.2,9,9,8.8,9,8.5S9.2,8,9.5,8H11c0.6,0,1-0.4,1-1s-0.4-1-1-1c0-0.6-0.4-1-1-1
		S9,5.4,9,6v0.1C7.9,6.3,7,7.3,7,8.5C7,9.9,8.1,11,9.5,11z"/>
</g>
<g>
	<path d="M28,9h-7v4h10v-1C31,10.3,29.7,9,28,9z"/>
	<path d="M21,25h7c1.7,0,3-1.3,3-3v-7H21V25z M23,19c0-0.6,0.4-1,1-1h3c0.6,0,1,0.4,1,1v2c0,0.6-0.4,1-1,1h-3c-0.6,0-1-0.4-1-1V19z"
		/>
</g>
</svg>